<?xml version="1.0" encoding="utf-8"?>
<!-- Generator: Adobe Illustrator 16.0.0, SVG Export Plug-In . SVG Version: 6.00 Build 0)  -->
<!DOCTYPE svg PUBLIC "-//W3C//DTD SVG 1.1//EN" "http://www.w3.org/Graphics/SVG/1.1/DTD/svg11.dtd">
<svg version="1.1" id="Layer_1" xmlns="http://www.w3.org/2000/svg" xmlns:xlink="http://www.w3.org/1999/xlink" x="0px" y="0px"
	 width="50px" height="850px" viewBox="0 0 50 850" enable-background="new 0 0 50 850" xml:space="preserve">
<g>
	<circle fill="#9F9E9E" cx="25" cy="25" r="14.295"/>
</g>
<g>
	<path fill="#9F9E9E" d="M12.464,11.869c3.148-3.007,7.37-4.887,12.036-5.014v-4.34C18.638,2.644,13.33,5.012,9.397,8.802
		L12.464,11.869z"/>
</g>
<g>
	<path fill="#9F9E9E" d="M6.855,24.5c0.125-4.609,1.963-8.783,4.906-11.919L8.692,9.512c-3.726,3.922-6.05,9.183-6.177,14.988H6.855
		z"/>
</g>
<g>
	<path fill="#9F9E9E" d="M25.5,2.516v4.34c4.569,0.125,8.708,1.932,11.835,4.83l3.071-3.072C36.493,4.934,31.266,2.642,25.5,2.516z"
		/>
</g>
<g>
	<path fill="#9F9E9E" d="M11.686,37.335C8.788,34.208,6.98,30.069,6.855,25.5h-4.34c0.126,5.765,2.418,10.993,6.099,14.906
		L11.686,37.335z"/>
</g>
<g>
	<path fill="#9F9E9E" d="M38.055,12.379c3.053,3.157,4.962,7.414,5.09,12.121h4.34c-0.129-5.903-2.529-11.244-6.365-15.186
		L38.055,12.379z"/>
</g>
<g>
	<path fill="#9F9E9E" d="M43.145,25.5c-0.127,4.667-2.007,8.888-5.014,12.037l3.067,3.067c3.79-3.934,6.158-9.241,6.286-15.104
		H43.145z"/>
</g>
<g>
	<path fill="#9F9E9E" d="M37.419,38.238c-3.136,2.943-7.31,4.781-11.919,4.906v4.34c5.806-0.127,11.066-2.451,14.988-6.177
		L37.419,38.238z"/>
</g>
<g>
	<path fill="#9F9E9E" d="M24.5,43.145c-4.707-0.128-8.963-2.037-12.12-5.09L9.315,41.12c3.941,3.836,9.282,6.236,15.185,6.365
		V43.145z"/>
</g>
<g>
	<circle fill="#9F9E9E" cx="25" cy="75" r="14.295"/>
</g>
<g>
	<path fill="#9F9E9E" d="M12.464,61.869c3.148-3.007,7.37-4.887,12.036-5.014v-4.34c-5.862,0.128-11.17,2.497-15.103,6.287
		L12.464,61.869z"/>
</g>
<g>
	<path fill="#9F9E9E" d="M6.855,74.5c0.125-4.609,1.963-8.783,4.906-11.919l-3.069-3.069c-3.726,3.922-6.05,9.183-6.177,14.988
		H6.855z"/>
</g>
<g>
	<path fill="#CCCBCB" d="M25.5,52.516v4.34c4.569,0.125,8.708,1.932,11.835,4.83l3.071-3.072
		C36.493,54.934,31.266,52.642,25.5,52.516z"/>
</g>
<g>
	<path fill="#9F9E9E" d="M11.686,87.335C8.788,84.208,6.98,80.069,6.855,75.5h-4.34c0.126,5.765,2.418,10.993,6.099,14.906
		L11.686,87.335z"/>
</g>
<g>
	<path fill="#9F9E9E" d="M38.055,62.379c3.053,3.157,4.962,7.414,5.09,12.121h4.34c-0.129-5.903-2.529-11.244-6.365-15.186
		L38.055,62.379z"/>
</g>
<g>
	<path fill="#9F9E9E" d="M43.145,75.5c-0.127,4.667-2.007,8.888-5.014,12.037l3.067,3.067c3.79-3.934,6.158-9.241,6.286-15.104
		H43.145z"/>
</g>
<g>
	<path fill="#9F9E9E" d="M37.419,88.238c-3.136,2.943-7.31,4.781-11.919,4.906v4.34c5.806-0.127,11.066-2.451,14.988-6.177
		L37.419,88.238z"/>
</g>
<g>
	<path fill="#9F9E9E" d="M24.5,93.145c-4.707-0.128-8.963-2.037-12.12-5.09L9.315,91.12c3.941,3.836,9.282,6.236,15.185,6.365
		V93.145z"/>
</g>
<g>
	<circle fill="#9F9E9E" cx="25" cy="125" r="14.295"/>
</g>
<g>
	<path fill="#9F9E9E" d="M12.464,111.869c3.148-3.007,7.37-4.887,12.036-5.014v-4.34c-5.862,0.128-11.17,2.497-15.103,6.287
		L12.464,111.869z"/>
</g>
<g>
	<path fill="#9F9E9E" d="M6.855,124.5c0.125-4.609,1.963-8.783,4.906-11.919l-3.069-3.069c-3.726,3.922-6.05,9.183-6.177,14.988
		H6.855z"/>
</g>
<g>
	<path fill="#CCCBCB" d="M25.5,102.516v4.34c4.569,0.125,8.708,1.932,11.835,4.83l3.071-3.072
		C36.493,104.934,31.266,102.642,25.5,102.516z"/>
</g>
<g>
	<path fill="#9F9E9E" d="M11.686,137.335c-2.898-3.127-4.706-7.266-4.83-11.835h-4.34c0.126,5.765,2.418,10.993,6.099,14.906
		L11.686,137.335z"/>
</g>
<g>
	<path fill="#CCCBCB" d="M38.055,112.379c3.053,3.157,4.962,7.414,5.09,12.121h4.34c-0.129-5.903-2.529-11.244-6.365-15.186
		L38.055,112.379z"/>
</g>
<g>
	<path fill="#9F9E9E" d="M43.145,125.5c-0.127,4.667-2.007,8.888-5.014,12.037l3.067,3.067c3.79-3.934,6.158-9.241,6.286-15.104
		H43.145z"/>
</g>
<g>
	<path fill="#9F9E9E" d="M37.419,138.238c-3.136,2.943-7.31,4.781-11.919,4.906v4.34c5.806-0.127,11.066-2.451,14.988-6.177
		L37.419,138.238z"/>
</g>
<g>
	<path fill="#9F9E9E" d="M24.5,143.145c-4.707-0.128-8.963-2.037-12.12-5.09l-3.065,3.065c3.941,3.836,9.282,6.236,15.185,6.365
		V143.145z"/>
</g>
<g>
	<circle fill="#9F9E9E" cx="25" cy="175" r="14.295"/>
</g>
<g>
	<path fill="#9F9E9E" d="M12.464,161.869c3.148-3.007,7.37-4.887,12.036-5.014v-4.34c-5.862,0.128-11.17,2.497-15.103,6.287
		L12.464,161.869z"/>
</g>
<g>
	<path fill="#9F9E9E" d="M6.855,174.5c0.125-4.609,1.963-8.783,4.906-11.919l-3.069-3.069c-3.726,3.922-6.05,9.183-6.177,14.988
		H6.855z"/>
</g>
<g>
	<path fill="#CCCBCB" d="M25.5,152.516v4.34c4.569,0.125,8.708,1.932,11.835,4.83l3.071-3.072
		C36.493,154.934,31.266,152.642,25.5,152.516z"/>
</g>
<g>
	<path fill="#9F9E9E" d="M11.686,187.335c-2.898-3.127-4.706-7.266-4.83-11.835h-4.34c0.126,5.765,2.418,10.993,6.099,14.906
		L11.686,187.335z"/>
</g>
<g>
	<path fill="#CCCBCB" d="M38.055,162.379c3.053,3.157,4.962,7.414,5.09,12.121h4.34c-0.129-5.903-2.529-11.244-6.365-15.186
		L38.055,162.379z"/>
</g>
<g>
	<path fill="#CCCBCB" d="M43.145,175.5c-0.127,4.667-2.007,8.888-5.014,12.037l3.067,3.067c3.79-3.934,6.158-9.241,6.286-15.104
		H43.145z"/>
</g>
<g>
	<path fill="#9F9E9E" d="M37.419,188.238c-3.136,2.943-7.31,4.781-11.919,4.906v4.34c5.806-0.127,11.066-2.451,14.988-6.177
		L37.419,188.238z"/>
</g>
<g>
	<path fill="#9F9E9E" d="M24.5,193.145c-4.707-0.128-8.963-2.037-12.12-5.09l-3.065,3.065c3.941,3.836,9.282,6.236,15.185,6.365
		V193.145z"/>
</g>
<g>
	<circle fill="#9F9E9E" cx="25" cy="225" r="14.295"/>
</g>
<g>
	<path fill="#9F9E9E" d="M12.464,211.869c3.148-3.007,7.37-4.887,12.036-5.014v-4.34c-5.862,0.128-11.17,2.497-15.103,6.287
		L12.464,211.869z"/>
</g>
<g>
	<path fill="#9F9E9E" d="M6.855,224.5c0.125-4.609,1.963-8.783,4.906-11.919l-3.069-3.069c-3.726,3.922-6.05,9.183-6.177,14.988
		H6.855z"/>
</g>
<g>
	<path fill="#CCCBCB" d="M25.5,202.516v4.34c4.569,0.125,8.708,1.932,11.835,4.83l3.071-3.072
		C36.493,204.934,31.266,202.642,25.5,202.516z"/>
</g>
<g>
	<path fill="#9F9E9E" d="M11.686,237.335c-2.898-3.127-4.706-7.266-4.83-11.835h-4.34c0.126,5.765,2.418,10.993,6.099,14.906
		L11.686,237.335z"/>
</g>
<g>
	<path fill="#CCCBCB" d="M38.055,212.379c3.053,3.157,4.962,7.414,5.09,12.121h4.34c-0.129-5.903-2.529-11.244-6.365-15.186
		L38.055,212.379z"/>
</g>
<g>
	<path fill="#CCCBCB" d="M43.145,225.5c-0.127,4.667-2.007,8.888-5.014,12.037l3.067,3.067c3.79-3.934,6.158-9.241,6.286-15.104
		H43.145z"/>
</g>
<g>
	<path fill="#CCCBCB" d="M37.419,238.238c-3.136,2.943-7.31,4.781-11.919,4.906v4.34c5.806-0.127,11.066-2.451,14.988-6.177
		L37.419,238.238z"/>
</g>
<g>
	<path fill="#9F9E9E" d="M24.5,243.145c-4.707-0.128-8.963-2.037-12.12-5.09l-3.065,3.065c3.941,3.836,9.282,6.236,15.185,6.365
		V243.145z"/>
</g>
<g>
	<circle fill="#9F9E9E" cx="25" cy="275" r="14.295"/>
</g>
<g>
	<path fill="#9F9E9E" d="M12.464,261.869c3.148-3.007,7.37-4.887,12.036-5.014v-4.34c-5.862,0.128-11.17,2.497-15.103,6.287
		L12.464,261.869z"/>
</g>
<g>
	<path fill="#9F9E9E" d="M6.855,274.5c0.125-4.609,1.963-8.783,4.906-11.919l-3.069-3.069c-3.726,3.922-6.05,9.183-6.177,14.988
		H6.855z"/>
</g>
<g>
	<path fill="#CCCBCB" d="M25.5,252.516v4.34c4.569,0.125,8.708,1.932,11.835,4.83l3.071-3.072
		C36.493,254.934,31.266,252.642,25.5,252.516z"/>
</g>
<g>
	<path fill="#9F9E9E" d="M11.686,287.335c-2.898-3.127-4.706-7.266-4.83-11.835h-4.34c0.126,5.765,2.418,10.993,6.099,14.906
		L11.686,287.335z"/>
</g>
<g>
	<path fill="#CCCBCB" d="M38.055,262.379c3.053,3.157,4.962,7.414,5.09,12.121h4.34c-0.129-5.903-2.529-11.244-6.365-15.186
		L38.055,262.379z"/>
</g>
<g>
	<path fill="#CCCBCB" d="M43.145,275.5c-0.127,4.667-2.007,8.888-5.014,12.037l3.067,3.067c3.79-3.934,6.158-9.241,6.286-15.104
		H43.145z"/>
</g>
<g>
	<path fill="#CCCBCB" d="M37.419,288.238c-3.136,2.943-7.31,4.781-11.919,4.906v4.34c5.806-0.127,11.066-2.451,14.988-6.177
		L37.419,288.238z"/>
</g>
<g>
	<path fill="#CCCBCB" d="M24.5,293.145c-4.707-0.128-8.963-2.037-12.12-5.09l-3.065,3.065c3.941,3.836,9.282,6.236,15.185,6.365
		V293.145z"/>
</g>
<g>
	<circle fill="#9F9E9E" cx="25" cy="325" r="14.295"/>
</g>
<g>
	<path fill="#9F9E9E" d="M12.464,311.869c3.148-3.007,7.37-4.887,12.036-5.014v-4.34c-5.862,0.128-11.17,2.497-15.103,6.287
		L12.464,311.869z"/>
</g>
<g>
	<path fill="#9F9E9E" d="M6.855,324.5c0.125-4.609,1.963-8.783,4.906-11.919l-3.069-3.069c-3.726,3.922-6.05,9.183-6.177,14.988
		H6.855z"/>
</g>
<g>
	<path fill="#CCCBCB" d="M25.5,302.516v4.34c4.569,0.125,8.708,1.932,11.835,4.83l3.071-3.072
		C36.493,304.934,31.266,302.642,25.5,302.516z"/>
</g>
<g>
	<path fill="#CCCBCB" d="M11.686,337.335c-2.898-3.127-4.706-7.266-4.83-11.835h-4.34c0.126,5.765,2.418,10.993,6.099,14.906
		L11.686,337.335z"/>
</g>
<g>
	<path fill="#CCCBCB" d="M38.055,312.379c3.053,3.157,4.962,7.414,5.09,12.121h4.34c-0.129-5.903-2.529-11.244-6.365-15.186
		L38.055,312.379z"/>
</g>
<g>
	<path fill="#CCCBCB" d="M43.145,325.5c-0.127,4.667-2.007,8.888-5.014,12.037l3.067,3.067c3.79-3.934,6.158-9.241,6.286-15.104
		H43.145z"/>
</g>
<g>
	<path fill="#CCCBCB" d="M37.419,338.238c-3.136,2.943-7.31,4.781-11.919,4.906v4.34c5.806-0.127,11.066-2.451,14.988-6.177
		L37.419,338.238z"/>
</g>
<g>
	<path fill="#CCCBCB" d="M24.5,343.145c-4.707-0.128-8.963-2.037-12.12-5.09l-3.065,3.065c3.941,3.836,9.282,6.236,15.185,6.365
		V343.145z"/>
</g>
<g>
	<circle fill="#9F9E9E" cx="25" cy="375" r="14.295"/>
</g>
<g>
	<path fill="#9F9E9E" d="M12.464,361.869c3.148-3.007,7.37-4.887,12.036-5.014v-4.34c-5.862,0.128-11.17,2.497-15.103,6.287
		L12.464,361.869z"/>
</g>
<g>
	<path fill="#CCCBCB" d="M6.855,374.5c0.125-4.609,1.963-8.783,4.906-11.919l-3.069-3.069c-3.726,3.922-6.05,9.183-6.177,14.988
		H6.855z"/>
</g>
<g>
	<path fill="#CCCBCB" d="M25.5,352.516v4.34c4.569,0.125,8.708,1.932,11.835,4.83l3.071-3.072
		C36.493,354.934,31.266,352.642,25.5,352.516z"/>
</g>
<g>
	<path fill="#CCCBCB" d="M11.686,387.335c-2.898-3.127-4.706-7.266-4.83-11.835h-4.34c0.126,5.765,2.418,10.993,6.099,14.906
		L11.686,387.335z"/>
</g>
<g>
	<path fill="#CCCBCB" d="M38.055,362.379c3.053,3.157,4.962,7.414,5.09,12.121h4.34c-0.129-5.903-2.529-11.244-6.365-15.186
		L38.055,362.379z"/>
</g>
<g>
	<path fill="#CCCBCB" d="M43.145,375.5c-0.127,4.667-2.007,8.888-5.014,12.037l3.067,3.067c3.79-3.934,6.158-9.241,6.286-15.104
		H43.145z"/>
</g>
<g>
	<path fill="#CCCBCB" d="M37.419,388.238c-3.136,2.943-7.31,4.781-11.919,4.906v4.34c5.806-0.127,11.066-2.451,14.988-6.177
		L37.419,388.238z"/>
</g>
<g>
	<path fill="#CCCBCB" d="M24.5,393.145c-4.707-0.128-8.963-2.037-12.12-5.09l-3.065,3.065c3.941,3.836,9.282,6.236,15.185,6.365
		V393.145z"/>
</g>
<g>
	<circle fill="#9F9E9E" cx="25" cy="425" r="14.295"/>
</g>
<g>
	<path fill="#CCCBCB" d="M12.464,411.869c3.148-3.007,7.37-4.887,12.036-5.014v-4.34c-5.862,0.128-11.17,2.497-15.103,6.287
		L12.464,411.869z"/>
</g>
<g>
	<path fill="#CCCBCB" d="M6.855,424.5c0.125-4.609,1.963-8.783,4.906-11.919l-3.069-3.069c-3.726,3.922-6.05,9.183-6.177,14.988
		H6.855z"/>
</g>
<g>
	<path fill="#CCCBCB" d="M25.5,402.516v4.34c4.569,0.125,8.708,1.932,11.835,4.83l3.071-3.072
		C36.493,404.934,31.266,402.642,25.5,402.516z"/>
</g>
<g>
	<path fill="#CCCBCB" d="M11.686,437.335c-2.898-3.127-4.706-7.267-4.83-11.835h-4.34c0.126,5.766,2.418,10.993,6.099,14.906
		L11.686,437.335z"/>
</g>
<g>
	<path fill="#CCCBCB" d="M38.055,412.379c3.053,3.157,4.962,7.414,5.09,12.121h4.34c-0.129-5.903-2.529-11.244-6.365-15.186
		L38.055,412.379z"/>
</g>
<g>
	<path fill="#CCCBCB" d="M43.145,425.5c-0.127,4.666-2.007,8.889-5.014,12.037l3.067,3.066c3.79-3.934,6.158-9.241,6.286-15.104
		H43.145z"/>
</g>
<g>
	<path fill="#CCCBCB" d="M37.419,438.238c-3.136,2.943-7.31,4.781-11.919,4.906v4.34c5.806-0.127,11.066-2.451,14.988-6.177
		L37.419,438.238z"/>
</g>
<g>
	<path fill="#CCCBCB" d="M24.5,443.145c-4.707-0.129-8.963-2.037-12.12-5.09l-3.065,3.064c3.941,3.836,9.282,6.236,15.185,6.365
		V443.145z"/>
</g>
<g>
	<circle fill="#9F9E9E" cx="25" cy="475" r="14.295"/>
</g>
<g>
	<path fill="#CCCBCB" d="M12.464,461.869c3.148-3.007,7.37-4.887,12.036-5.014v-4.34c-5.862,0.129-11.17,2.496-15.103,6.287
		L12.464,461.869z"/>
</g>
<g>
	<path fill="#CCCBCB" d="M6.855,474.5c0.125-4.609,1.963-8.783,4.906-11.919l-3.069-3.069c-3.726,3.922-6.05,9.183-6.177,14.988
		H6.855z"/>
</g>
<g>
	<path fill="#9F9E9E" d="M25.5,452.516v4.34c4.569,0.125,8.708,1.932,11.835,4.83l3.071-3.072
		C36.493,454.934,31.266,452.642,25.5,452.516z"/>
</g>
<g>
	<path fill="#CCCBCB" d="M11.686,487.335c-2.898-3.127-4.706-7.267-4.83-11.835h-4.34c0.126,5.766,2.418,10.993,6.099,14.906
		L11.686,487.335z"/>
</g>
<g>
	<path fill="#CCCBCB" d="M38.055,462.379c3.053,3.157,4.962,7.414,5.09,12.121h4.34c-0.129-5.903-2.529-11.244-6.365-15.186
		L38.055,462.379z"/>
</g>
<g>
	<path fill="#CCCBCB" d="M43.145,475.5c-0.127,4.666-2.007,8.889-5.014,12.037l3.067,3.066c3.79-3.934,6.158-9.241,6.286-15.104
		H43.145z"/>
</g>
<g>
	<path fill="#CCCBCB" d="M37.419,488.238c-3.136,2.943-7.31,4.781-11.919,4.906v4.34c5.806-0.127,11.066-2.451,14.988-6.177
		L37.419,488.238z"/>
</g>
<g>
	<path fill="#CCCBCB" d="M24.5,493.145c-4.707-0.129-8.963-2.037-12.12-5.09l-3.065,3.064c3.941,3.836,9.282,6.236,15.185,6.365
		V493.145z"/>
</g>
<g>
	<circle fill="#9F9E9E" cx="25" cy="525" r="14.295"/>
</g>
<g>
	<path fill="#CCCBCB" d="M12.464,511.869c3.148-3.007,7.37-4.887,12.036-5.014v-4.34c-5.862,0.129-11.17,2.496-15.103,6.287
		L12.464,511.869z"/>
</g>
<g>
	<path fill="#CCCBCB" d="M6.855,524.5c0.125-4.609,1.963-8.783,4.906-11.919l-3.069-3.069c-3.726,3.922-6.05,9.183-6.177,14.988
		H6.855z"/>
</g>
<g>
	<path fill="#9F9E9E" d="M25.5,502.516v4.34c4.569,0.125,8.708,1.932,11.835,4.83l3.071-3.072
		C36.493,504.934,31.266,502.642,25.5,502.516z"/>
</g>
<g>
	<path fill="#CCCBCB" d="M11.686,537.335c-2.898-3.127-4.706-7.267-4.83-11.835h-4.34c0.126,5.766,2.418,10.993,6.099,14.906
		L11.686,537.335z"/>
</g>
<g>
	<path fill="#9F9E9E" d="M38.055,512.379c3.053,3.157,4.962,7.414,5.09,12.121h4.34c-0.129-5.903-2.529-11.244-6.365-15.186
		L38.055,512.379z"/>
</g>
<g>
	<path fill="#CCCBCB" d="M43.145,525.5c-0.127,4.666-2.007,8.889-5.014,12.037l3.067,3.066c3.79-3.934,6.158-9.241,6.286-15.104
		H43.145z"/>
</g>
<g>
	<path fill="#CCCBCB" d="M37.419,538.238c-3.136,2.943-7.31,4.781-11.919,4.906v4.34c5.806-0.127,11.066-2.451,14.988-6.177
		L37.419,538.238z"/>
</g>
<g>
	<path fill="#CCCBCB" d="M24.5,543.145c-4.707-0.129-8.963-2.037-12.12-5.09l-3.065,3.064c3.941,3.836,9.282,6.236,15.185,6.365
		V543.145z"/>
</g>
<g>
	<circle fill="#9F9E9E" cx="25" cy="575" r="14.295"/>
</g>
<g>
	<path fill="#CCCBCB" d="M12.464,561.869c3.148-3.007,7.37-4.887,12.036-5.014v-4.34c-5.862,0.129-11.17,2.496-15.103,6.287
		L12.464,561.869z"/>
</g>
<g>
	<path fill="#CCCBCB" d="M6.855,574.5c0.125-4.609,1.963-8.783,4.906-11.919l-3.069-3.069c-3.726,3.922-6.05,9.183-6.177,14.988
		H6.855z"/>
</g>
<g>
	<path fill="#9F9E9E" d="M25.5,552.516v4.34c4.569,0.125,8.708,1.932,11.835,4.83l3.071-3.072
		C36.493,554.934,31.266,552.642,25.5,552.516z"/>
</g>
<g>
	<path fill="#CCCBCB" d="M11.686,587.335c-2.898-3.127-4.706-7.267-4.83-11.835h-4.34c0.126,5.766,2.418,10.993,6.099,14.906
		L11.686,587.335z"/>
</g>
<g>
	<path fill="#9F9E9E" d="M38.055,562.379c3.053,3.157,4.962,7.414,5.09,12.121h4.34c-0.129-5.903-2.529-11.244-6.365-15.186
		L38.055,562.379z"/>
</g>
<g>
	<path fill="#9F9E9E" d="M43.145,575.5c-0.127,4.666-2.007,8.889-5.014,12.037l3.067,3.066c3.79-3.934,6.158-9.241,6.286-15.104
		H43.145z"/>
</g>
<g>
	<path fill="#CCCBCB" d="M37.419,588.238c-3.136,2.943-7.31,4.781-11.919,4.906v4.34c5.806-0.127,11.066-2.451,14.988-6.177
		L37.419,588.238z"/>
</g>
<g>
	<path fill="#CCCBCB" d="M24.5,593.145c-4.707-0.129-8.963-2.037-12.12-5.09l-3.065,3.064c3.941,3.836,9.282,6.236,15.185,6.365
		V593.145z"/>
</g>
<g>
	<circle fill="#9F9E9E" cx="25" cy="625" r="14.295"/>
</g>
<g>
	<path fill="#CCCBCB" d="M12.464,611.869c3.148-3.007,7.37-4.887,12.036-5.014v-4.34c-5.862,0.129-11.17,2.496-15.103,6.287
		L12.464,611.869z"/>
</g>
<g>
	<path fill="#CCCBCB" d="M6.855,624.5c0.125-4.609,1.963-8.783,4.906-11.919l-3.069-3.069c-3.726,3.922-6.05,9.183-6.177,14.988
		H6.855z"/>
</g>
<g>
	<path fill="#9F9E9E" d="M25.5,602.516v4.34c4.569,0.125,8.708,1.932,11.835,4.83l3.071-3.072
		C36.493,604.934,31.266,602.642,25.5,602.516z"/>
</g>
<g>
	<path fill="#CCCBCB" d="M11.686,637.335c-2.898-3.127-4.706-7.267-4.83-11.835h-4.34c0.126,5.766,2.418,10.993,6.099,14.906
		L11.686,637.335z"/>
</g>
<g>
	<path fill="#9F9E9E" d="M38.055,612.379c3.053,3.157,4.962,7.414,5.09,12.121h4.34c-0.129-5.903-2.529-11.244-6.365-15.186
		L38.055,612.379z"/>
</g>
<g>
	<path fill="#9F9E9E" d="M43.145,625.5c-0.127,4.666-2.007,8.889-5.014,12.037l3.067,3.066c3.79-3.934,6.158-9.241,6.286-15.104
		H43.145z"/>
</g>
<g>
	<path fill="#9F9E9E" d="M37.419,638.238c-3.136,2.943-7.31,4.781-11.919,4.906v4.34c5.806-0.127,11.066-2.451,14.988-6.177
		L37.419,638.238z"/>
</g>
<g>
	<path fill="#CCCBCB" d="M24.5,643.145c-4.707-0.129-8.963-2.037-12.12-5.09l-3.065,3.064c3.941,3.836,9.282,6.236,15.185,6.365
		V643.145z"/>
</g>
<g>
	<circle fill="#9F9E9E" cx="25" cy="675" r="14.295"/>
</g>
<g>
	<path fill="#CCCBCB" d="M12.464,661.869c3.148-3.007,7.37-4.887,12.036-5.014v-4.34c-5.862,0.129-11.17,2.496-15.103,6.287
		L12.464,661.869z"/>
</g>
<g>
	<path fill="#CCCBCB" d="M6.855,674.5c0.125-4.609,1.963-8.783,4.906-11.919l-3.069-3.069c-3.726,3.922-6.05,9.183-6.177,14.988
		H6.855z"/>
</g>
<g>
	<path fill="#9F9E9E" d="M25.5,652.516v4.34c4.569,0.125,8.708,1.932,11.835,4.83l3.071-3.072
		C36.493,654.934,31.266,652.642,25.5,652.516z"/>
</g>
<g>
	<path fill="#CCCBCB" d="M11.686,687.335c-2.898-3.127-4.706-7.267-4.83-11.835h-4.34c0.126,5.766,2.418,10.993,6.099,14.906
		L11.686,687.335z"/>
</g>
<g>
	<path fill="#9F9E9E" d="M38.055,662.379c3.053,3.157,4.962,7.414,5.09,12.121h4.34c-0.129-5.903-2.529-11.244-6.365-15.186
		L38.055,662.379z"/>
</g>
<g>
	<path fill="#9F9E9E" d="M43.145,675.5c-0.127,4.666-2.007,8.889-5.014,12.037l3.067,3.066c3.79-3.934,6.158-9.241,6.286-15.104
		H43.145z"/>
</g>
<g>
	<path fill="#9F9E9E" d="M37.419,688.238c-3.136,2.943-7.31,4.781-11.919,4.906v4.34c5.806-0.127,11.066-2.451,14.988-6.177
		L37.419,688.238z"/>
</g>
<g>
	<path fill="#9F9E9E" d="M24.5,693.145c-4.707-0.129-8.963-2.037-12.12-5.09l-3.065,3.064c3.941,3.836,9.282,6.236,15.185,6.365
		V693.145z"/>
</g>
<g>
	<circle fill="#9F9E9E" cx="25" cy="725" r="14.295"/>
</g>
<g>
	<path fill="#CCCBCB" d="M12.464,711.869c3.148-3.007,7.37-4.887,12.036-5.014v-4.34c-5.862,0.129-11.17,2.496-15.103,6.287
		L12.464,711.869z"/>
</g>
<g>
	<path fill="#CCCBCB" d="M6.855,724.5c0.125-4.609,1.963-8.783,4.906-11.919l-3.069-3.069c-3.726,3.922-6.05,9.183-6.177,14.988
		H6.855z"/>
</g>
<g>
	<path fill="#9F9E9E" d="M25.5,702.516v4.34c4.569,0.125,8.708,1.932,11.835,4.83l3.071-3.072
		C36.493,704.934,31.266,702.642,25.5,702.516z"/>
</g>
<g>
	<path fill="#9F9E9E" d="M11.686,737.335c-2.898-3.127-4.706-7.267-4.83-11.835h-4.34c0.126,5.766,2.418,10.993,6.099,14.906
		L11.686,737.335z"/>
</g>
<g>
	<path fill="#9F9E9E" d="M38.055,712.379c3.053,3.157,4.962,7.414,5.09,12.121h4.34c-0.129-5.903-2.529-11.244-6.365-15.186
		L38.055,712.379z"/>
</g>
<g>
	<path fill="#9F9E9E" d="M43.145,725.5c-0.127,4.666-2.007,8.889-5.014,12.037l3.067,3.066c3.79-3.934,6.158-9.241,6.286-15.104
		H43.145z"/>
</g>
<g>
	<path fill="#9F9E9E" d="M37.419,738.238c-3.136,2.943-7.31,4.781-11.919,4.906v4.34c5.806-0.127,11.066-2.451,14.988-6.177
		L37.419,738.238z"/>
</g>
<g>
	<path fill="#9F9E9E" d="M24.5,743.145c-4.707-0.129-8.963-2.037-12.12-5.09l-3.065,3.064c3.941,3.836,9.282,6.236,15.185,6.365
		V743.145z"/>
</g>
<g>
	<circle fill="#9F9E9E" cx="25" cy="775" r="14.295"/>
</g>
<g>
	<path fill="#CCCBCB" d="M12.464,761.869c3.148-3.007,7.37-4.887,12.036-5.014v-4.34c-5.862,0.129-11.17,2.496-15.103,6.287
		L12.464,761.869z"/>
</g>
<g>
	<path fill="#9F9E9E" d="M6.855,774.5c0.125-4.609,1.963-8.783,4.906-11.919l-3.069-3.069c-3.726,3.922-6.05,9.183-6.177,14.988
		H6.855z"/>
</g>
<g>
	<path fill="#9F9E9E" d="M25.5,752.516v4.34c4.569,0.125,8.708,1.932,11.835,4.83l3.071-3.072
		C36.493,754.934,31.266,752.642,25.5,752.516z"/>
</g>
<g>
	<path fill="#9F9E9E" d="M11.686,787.335c-2.898-3.127-4.706-7.267-4.83-11.835h-4.34c0.126,5.766,2.418,10.993,6.099,14.906
		L11.686,787.335z"/>
</g>
<g>
	<path fill="#9F9E9E" d="M38.055,762.379c3.053,3.157,4.962,7.414,5.09,12.121h4.34c-0.129-5.903-2.529-11.244-6.365-15.186
		L38.055,762.379z"/>
</g>
<g>
	<path fill="#9F9E9E" d="M43.145,775.5c-0.127,4.666-2.007,8.889-5.014,12.037l3.067,3.066c3.79-3.934,6.158-9.241,6.286-15.104
		H43.145z"/>
</g>
<g>
	<path fill="#9F9E9E" d="M37.419,788.238c-3.136,2.943-7.31,4.781-11.919,4.906v4.34c5.806-0.127,11.066-2.451,14.988-6.177
		L37.419,788.238z"/>
</g>
<g>
	<path fill="#9F9E9E" d="M24.5,793.145c-4.707-0.129-8.963-2.037-12.12-5.09l-3.065,3.064c3.941,3.836,9.282,6.236,15.185,6.365
		V793.145z"/>
</g>
<g>
	<circle fill="#9F9E9E" cx="25" cy="825" r="14.295"/>
</g>
<g>
	<path fill="#9F9E9E" d="M12.464,811.869c3.148-3.007,7.37-4.887,12.036-5.014v-4.34c-5.862,0.129-11.17,2.496-15.103,6.287
		L12.464,811.869z"/>
</g>
<g>
	<path fill="#9F9E9E" d="M6.855,824.5c0.125-4.609,1.963-8.783,4.906-11.919l-3.069-3.069c-3.726,3.922-6.05,9.183-6.177,14.988
		H6.855z"/>
</g>
<g>
	<path fill="#9F9E9E" d="M25.5,802.516v4.34c4.569,0.125,8.708,1.932,11.835,4.83l3.071-3.072
		C36.493,804.934,31.266,802.642,25.5,802.516z"/>
</g>
<g>
	<path fill="#9F9E9E" d="M11.686,837.335c-2.898-3.127-4.706-7.267-4.83-11.835h-4.34c0.126,5.766,2.418,10.993,6.099,14.906
		L11.686,837.335z"/>
</g>
<g>
	<path fill="#9F9E9E" d="M38.055,812.379c3.053,3.157,4.962,7.414,5.09,12.121h4.34c-0.129-5.903-2.529-11.244-6.365-15.186
		L38.055,812.379z"/>
</g>
<g>
	<path fill="#9F9E9E" d="M43.145,825.5c-0.127,4.666-2.007,8.889-5.014,12.037l3.067,3.066c3.79-3.934,6.158-9.241,6.286-15.104
		H43.145z"/>
</g>
<g>
	<path fill="#9F9E9E" d="M37.419,838.238c-3.136,2.943-7.31,4.781-11.919,4.906v4.34c5.806-0.127,11.066-2.451,14.988-6.177
		L37.419,838.238z"/>
</g>
<g>
	<path fill="#9F9E9E" d="M24.5,843.145c-4.707-0.129-8.963-2.037-12.12-5.09l-3.065,3.064c3.941,3.836,9.282,6.236,15.185,6.365
		V843.145z"/>
</g>
</svg>
